<?xml version="1.0" encoding="UTF-8"?>
<svg id="Calque_4" data-name="Calque 4" xmlns="http://www.w3.org/2000/svg" viewBox="0 0 948 677">
  <defs>
    <style>
      .cls-1 {
        fill: none;
        stroke: #000;
        stroke-linecap: round;
        stroke-linejoin: round;
        stroke-width: 20px;
      }
    </style>
  </defs>
  <path class="cls-1" d="M316,544.08h-95.53c-28.26,0-58.26-28-58.26-44s-4-25-25-25-41-28-46-51c-3.34-15.39-8.48-43.3-11.51-60.1-1.62-8.97-6.48-17.03-13.66-22.65l-25.95-20.31c-2.44-1.91-3.87-4.84-3.87-7.95v-22.14c0-2.13,1.73-3.85,3.85-3.85h60.93c27.22,0,66.11,23.22,66.11,66.11v-57.11c0-40,42.11-51,57.11-51h327c49,0,73,30,73,64"/>
  <path class="cls-1" d="M320,591.08H61.08c-19.81,0-35.87-16.06-35.87-35.87h0c0-5.59,4.54-10.13,10.13-10.13h280.66"/>
  <path class="cls-1" d="M139.21,591.08h57v23.63c0,14-11.37,25.37-25.37,25.37h-6.26c-14,0-25.37-11.37-25.37-25.37v-23.63h0Z"/>
  <path class="cls-1" d="M326.41,198.08h121.61c5.59,0,10.13,4.54,10.13,10.13h0c0,19.8-16.07,35.87-35.87,35.87h-70.13c-19.8,0-35.87-16.07-35.87-35.87h0c0-5.59,4.54-10.13,10.13-10.13Z" transform="translate(774.42 442.17) rotate(-180)"/>
  <path class="cls-1" d="M167.71,312.37V123.5c0-46.15,37.41-83.57,83.57-83.57h289.37c46.15,0,83.57,37.41,83.57,83.57v223.5"/>
  <g>
    <path d="M469.21,357.53h34.9c7.07,0,12.79,5.73,12.79,12.79v159.38c0,7.07,5.73,12.79,12.79,12.79h0c7.07,0,12.79,5.73,12.79,12.79v25c0,7.07-5.73,12.79-12.79,12.79h0c-7.07,0-12.79,5.73-12.79,12.79v33.4c0,7.07-5.73,12.79-12.79,12.79h-27.93c-7.07,0-12.79-5.73-12.79-12.79v-33.4c0-7.07-5.73-12.79-12.79-12.79h-99.8c-7.07,0-12.79-5.73-12.79-12.79v-33.89c0-2.54.76-5.03,2.18-7.14l118.42-176.07c2.38-3.53,6.36-5.65,10.62-5.65ZM463.39,529.7v-42.01c0-12.59-16.27-17.61-23.36-7.2l-28.63,42.01c-5.79,8.49.29,20,10.57,20h28.63c7.07,0,12.79-5.73,12.79-12.79Z"/>
    <path d="M559.79,364.76h61.9c7.07,0,12.79,5.73,12.79,12.79v261.72c0,7.07-5.73,12.79-12.79,12.79h-28.71c-7.07,0-12.79-5.73-12.79-12.79v-210.35c0-7.07-5.73-12.79-12.79-12.79h-23.48c-10.01,0-16.14-10.98-10.89-19.5l15.88-25.78c2.33-3.78,6.45-6.08,10.89-6.08Z"/>
    <path d="M834.35,486.34c-4.24,5.32-3.52,13.11,1.65,17.52,8.17,6.96,14.81,15.15,19.92,24.57,7.1,13.1,10.64,27.26,10.64,42.51,0,16.55-4.13,31.86-12.4,45.93-8.27,14.07-19.37,24.66-33.3,31.76-13.93,7.1-31.71,10.65-53.32,10.65-23.18,0-41.6-3.42-55.27-10.26-13.67-6.84-24.61-17.2-32.81-31.08-8.2-13.88-12.3-29.54-12.3-47.01,0-15.11,3.29-28.89,9.86-41.34,4.84-9.16,11.46-17.6,19.87-25.31,4.97-4.56,5.56-12.12,1.41-17.45-4.59-5.89-8.3-12.02-11.12-18.37-4.36-9.82-6.54-20.2-6.54-31.12,0-14.96,3.61-28.59,10.84-40.88,7.23-12.29,17.35-21.86,30.37-28.69,13.02-6.83,28.06-10.25,45.12-10.25s31.57,3.45,44.34,10.34c12.76,6.9,22.82,16.69,30.18,29.37,7.35,12.69,11.04,26.32,11.04,40.89,0,10.28-1.92,19.81-5.76,28.59-2.64,6.04-6.77,12.58-12.39,19.62ZM767.35,525.5c-13.15,0-24.22,4-33.2,12.01s-13.48,17.55-13.48,28.61,4.23,21.39,12.7,29.39c8.46,8.01,19.6,12.01,33.4,12.01s25.03-3.74,33.3-11.23c8.27-7.49,12.4-17.15,12.4-29s-4.3-21.78-12.89-29.79-19.34-12.01-32.23-12.01ZM765.2,410.27c-8.98,0-16.38,2.95-22.17,8.86-5.79,5.91-8.69,13.47-8.69,22.68s3.06,16.94,9.18,23.17c6.12,6.23,13.67,9.34,22.66,9.34s16.83-3.05,22.75-9.15c5.92-6.1,8.89-14.02,8.89-23.75,0-9.22-3-16.71-8.98-22.49-5.99-5.78-13.87-8.67-23.63-8.67Z"/>
  </g>
</svg>