<?xml version="1.0" encoding="UTF-8"?>
<svg id="Calque_2" xmlns="http://www.w3.org/2000/svg" viewBox="0 0 1366 768">
  <defs>
    <style>
      .cls-1 {
        fill: none;
        stroke: #000;
        stroke-linecap: round;
        stroke-linejoin: round;
        stroke-width: 20px;
      }
    </style>
  </defs>
  <path class="cls-1" d="M303,289.85c0-2.13,1.73-3.85,3.85-3.85h60.93c27.22,0,66.11,23.22,66.11,66.11v-57.11c0-40,42.11-51,57.11-51h327c49,0,73,30,73,64v168.04c0,26.96-11,66.96-73,66.96h-330.74c-28.26,0-58.26-28-58.26-44s-4-25-25-25-41-28-46-51c-3.34-15.39-8.48-43.3-11.51-60.1-1.62-8.97-6.48-17.03-13.66-22.65l-25.95-20.31c-2.44-1.91-3.87-4.84-3.87-7.95v-22.14Z"/>
  <polyline class="cls-1" points="779 373 779 318.34 779 244"/>
  <path class="cls-1" d="M302.13,544h700.74c5.59,0,10.13,4.54,10.13,10.13h0c0,19.8-16.07,35.87-35.87,35.87H327.87c-19.8,0-35.87-16.07-35.87-35.87h0c0-5.59,4.54-10.13,10.13-10.13Z"/>
  <path class="cls-1" d="M406,590h57v23.63c0,14-11.37,25.37-25.37,25.37h-6.26c-14,0-25.37-11.37-25.37-25.37v-23.63h0Z"/>
  <path class="cls-1" d="M512.13,197h283.74c5.59,0,10.13,4.54,10.13,10.13h0c0,19.8-16.07,35.87-35.87,35.87h-232.26c-19.8,0-35.87-16.07-35.87-35.87h0c0-5.59,4.54-10.13,10.13-10.13Z" transform="translate(1308 440) rotate(-180)"/>
  <path class="cls-1" d="M619,148h57v23.63c0,14-11.37,25.37-25.37,25.37h-6.26c-14,0-25.37-11.37-25.37-25.37v-23.63h0Z" transform="translate(1295 345) rotate(180)"/>
  <path class="cls-1" d="M838,590h57v23.63c0,14-11.37,25.37-25.37,25.37h-6.26c-14,0-25.37-11.37-25.37-25.37v-23.63h0Z"/>
  <g>
    <path class="cls-1" d="M579.06,446.21c17.29,44.83,14.59,87.62-6.02,95.57s-51.34-21.95-68.62-66.78c-17.29-44.83.42-93.41,6.02-95.57,7.46-2.88,51.34,21.95,68.62,66.78Z"/>
    <line class="cls-1" x1="571.67" y1="538.21" x2="532.26" y2="436.01"/>
  </g>
  <path class="cls-1" d="M642.35,520.9c-20.4,19.31-44.13,27.35-53.01,17.97s.47-32.63,20.87-51.94c20.4-19.31,50.6-20.52,53.01-17.97,3.21,3.4-.47,32.63-20.87,51.94Z"/>
  <path class="cls-1" d="M755.9,367.92c0-28.09,10.47-50.86,23.38-50.86,12.91,0,23.38,22.77,23.38,50.86,0,28.09-19.87,50.86-23.38,50.86-4.68,0-23.38-22.77-23.38-50.86Z"/>
  <path class="cls-1" d="M943.79,463.4l-52.79,17.6v-152l19.79-14.07c23.59-16.78,57.01-1.11,58.18,27.81.02.57.03,1.14.03,1.71v83.98c0,15.87-10.16,29.96-25.21,34.98Z"/>
</svg>