<?xml version="1.0" encoding="UTF-8"?>
<svg id="Calque_3" data-name="Calque 3" xmlns="http://www.w3.org/2000/svg" viewBox="0 0 948 677">
  <defs>
    <style>
      .cls-1 {
        fill: none;
        stroke: #000;
        stroke-linecap: round;
        stroke-linejoin: round;
        stroke-width: 20px;
      }
    </style>
  </defs>
  <path class="cls-1" d="M36.07,290.79c0-2.13,1.73-3.85,3.85-3.85h60.93c27.22,0,66.11,23.22,66.11,66.11v-57.11c0-40,42.11-51,57.11-51h327c49,0,73,30,73,64v168.04c0,26.96-11,66.96-73,66.96H220.33c-28.26,0-58.26-28-58.26-44s-4-25-25-25-41-28-46-51c-3.34-15.39-8.48-43.3-11.51-60.1-1.62-8.97-6.48-17.03-13.66-22.65l-25.95-20.31c-2.44-1.91-3.87-4.84-3.87-7.95v-22.14Z"/>
  <path class="cls-1" d="M35.2,544.93h700.74c5.59,0,10.13,4.54,10.13,10.13h0c0,19.8-16.07,35.87-35.87,35.87H60.93c-19.8,0-35.87-16.07-35.87-35.87h0c0-5.59,4.54-10.13,10.13-10.13Z"/>
  <path class="cls-1" d="M139.07,590.93h57v23.63c0,14-11.37,25.37-25.37,25.37h-6.26c-14,0-25.37-11.37-25.37-25.37v-23.63h0Z"/>
  <path class="cls-1" d="M326.26,197.93h121.61c5.59,0,10.13,4.54,10.13,10.13h0c0,19.8-16.07,35.87-35.87,35.87h-70.13c-19.8,0-35.87-16.07-35.87-35.87h0c0-5.59,4.54-10.13,10.13-10.13Z" transform="translate(774.13 441.87) rotate(-180)"/>
  <path class="cls-1" d="M571.07,590.93h57v23.63c0,14-11.37,25.37-25.37,25.37h-6.26c-14,0-25.37-11.37-25.37-25.37v-23.63h0Z"/>
  <path class="cls-1" d="M167.57,312.22V123.35c0-46.15,37.41-83.57,83.57-83.57h289.37c46.15,0,83.57,37.41,83.57,83.57v199.83"/>
</svg>